<?xml version="1.0" encoding="utf-8"?>
<!-- Generator: Adobe Illustrator 14.0.0, SVG Export Plug-In . SVG Version: 6.00 Build 43363)  -->
<!DOCTYPE svg PUBLIC "-//W3C//DTD SVG 1.1//EN" "http://www.w3.org/Graphics/SVG/1.1/DTD/svg11.dtd">
<svg version="1.1" xmlns="http://www.w3.org/2000/svg" xmlns:xlink="http://www.w3.org/1999/xlink" x="0px" y="0px"
	 width="195.21px" height="73.68px" viewBox="0 0 195.21 73.68" enable-background="new 0 0 195.21 73.68" xml:space="preserve">
<g id="in">
	<g>
		<path fill="#00539A" d="M74.6,15.754V7.043h9.391v8.711H74.6z M74.6,56.161V20.579h9.391v35.582H74.6z"/>
		<path fill="#00539A" d="M120.764,56.161h-9.391V38.002c0-3.842-0.201-6.327-0.602-7.455c-0.401-1.127-1.053-2.004-1.955-2.63
			c-0.902-0.625-1.988-0.938-3.258-0.938c-1.626,0-3.086,0.447-4.378,1.34c-1.292,0.894-2.178,2.077-2.657,3.551
			c-0.479,1.475-0.718,4.2-0.718,8.176v16.115h-9.391V20.579h8.722v5.227c3.097-4.021,6.996-6.031,11.696-6.031
			c2.072,0,3.965,0.375,5.681,1.123c1.715,0.749,3.013,1.704,3.894,2.865c0.88,1.162,1.492,2.479,1.838,3.954
			c0.345,1.474,0.518,3.585,0.518,6.332V56.161z"/>
	</g>
</g>
<g id="_xA9_">
	<g>
		<path fill="#00539A" d="M159.995,2.139c5.853,0,11.467,1.474,16.844,4.423c5.376,2.948,9.602,7.155,12.677,12.62
			c3.074,5.466,4.611,11.191,4.611,17.177c0,5.957-1.508,11.638-4.522,17.043c-3.016,5.405-7.219,9.62-12.61,12.643
			s-11.058,4.534-16.999,4.534s-11.607-1.512-16.998-4.534c-5.392-3.022-9.596-7.237-12.61-12.643
			c-3.015-5.405-4.522-11.086-4.522-17.043c0-5.986,1.537-11.711,4.612-17.177c3.074-5.464,7.299-9.671,12.676-12.62
			C148.529,3.613,154.144,2.139,159.995,2.139z M159.995,8.885c-4.693,0-9.201,1.177-13.522,3.529
			c-4.322,2.353-7.717,5.726-10.182,10.118c-2.466,4.394-3.699,9.001-3.699,13.826c0,4.766,1.21,9.322,3.631,13.67
			c2.421,4.349,5.8,7.736,10.137,10.163c4.337,2.428,8.882,3.641,13.635,3.641s9.298-1.213,13.635-3.641
			c4.337-2.427,7.716-5.814,10.138-10.163c2.42-4.348,3.631-8.904,3.631-13.67c0-4.794-1.232-9.396-3.698-13.804
			c-2.466-4.407-5.859-7.788-10.182-10.141C169.196,10.062,164.688,8.885,159.995,8.885z M168.283,41.451l7.174,2.412
			c-1.129,3.753-3.001,6.627-5.614,8.622c-2.614,1.996-5.733,2.993-9.357,2.993c-5.079,0-9.224-1.668-12.432-5.003
			c-3.208-3.336-4.812-7.937-4.812-13.804c0-3.842,0.713-7.267,2.139-10.275c1.426-3.008,3.482-5.256,6.171-6.746
			c2.688-1.489,5.695-2.233,9.023-2.233c3.653,0,6.706,0.871,9.156,2.613c2.451,1.742,4.359,4.49,5.726,8.242l-7.219,1.697
			c-0.831-2.173-1.908-3.752-3.229-4.735c-1.322-0.982-2.89-1.474-4.701-1.474c-2.703,0-4.917,1.021-6.64,3.06
			c-1.723,2.041-2.584,5.234-2.584,9.583c0,4.349,0.847,7.55,2.54,9.604s3.728,3.082,6.104,3.082c1.989,0,3.713-0.587,5.168-1.764
			S167.481,44.191,168.283,41.451z"/>
	</g>
	<g>
		<g>
			<path fill="#00539A" d="M59.958,12.06l9.695-9.741v24.307h-24.26l9.695-9.695c-5.628-5.752-12.231-8.628-19.807-8.628
				c-7.545,0-14.001,2.69-19.367,8.071c-5.365,5.381-8.048,11.844-8.048,19.39c0,7.607,2.674,14.086,8.025,19.436
				c5.35,5.35,11.813,8.025,19.39,8.025c7.298,0,13.792-2.675,19.482-8.025l4.824,4.871c-7.113,6.68-15.215,10.02-24.306,10.02
				c-9.464,0-17.542-3.348-24.237-10.043S1,45.257,1,35.764c0-9.463,3.348-17.551,10.043-24.261
				C17.739,4.792,25.816,1.438,35.28,1.438C44.773,1.438,53,4.978,59.958,12.06z"/>
		</g>
		<g>
			<path fill="#00539A" d="M35.28,70.09c-9.464,0-17.541-3.355-24.237-10.065C4.348,53.314,1,45.227,1,35.764
				c0-9.493,3.348-17.588,10.043-24.283S25.816,1.438,35.28,1.438c9.092,0,17.193,3.34,24.307,10.02l-4.824,4.871
				c-5.691-5.351-12.185-8.025-19.482-8.025c-7.577,0-14.04,2.676-19.39,8.025c-5.352,5.35-8.024,11.828-8.025,19.436
				c0,7.546,2.683,14.009,8.048,19.39s11.822,8.071,19.367,8.071c7.576,0,14.178-2.876,19.807-8.628l-9.695-9.694h24.261v24.307
				l-9.694-9.742C52.999,66.549,44.772,70.09,35.28,70.09z"/>
		</g>
	</g>
</g>
</svg>
